<svg width="18" height="18" viewBox="0 0 18 18" fill="none" xmlns="http://www.w3.org/2000/svg">
<path opacity="0.16" d="M13.9372 8.20872C13.9372 9.71161 13.3401 11.153 12.2774 12.2157C11.2147 13.2784 9.77338 13.8754 8.27049 13.8754C6.76759 13.8754 5.32626 13.2784 4.26355 12.2157C3.20084 11.153 2.60382 9.71161 2.60382 8.20872C2.60382 6.70583 3.20084 5.26449 4.26355 4.20178C5.32626 3.13908 6.76759 2.54205 8.27049 2.54205C9.77338 2.54205 11.2147 3.13908 12.2774 4.20178C13.3401 5.26449 13.9372 6.70583 13.9372 8.20872Z" fill="#787878"/>
<path d="M15.3538 15.292L12.2775 12.2157M12.2775 12.2157C12.8037 11.6895 13.2211 11.0648 13.5059 10.3772C13.7907 9.68972 13.9372 8.95283 13.9372 8.20865C13.9372 7.46448 13.7907 6.72759 13.5059 6.04006C13.2211 5.35253 12.8037 4.72782 12.2775 4.20161C11.7512 3.6754 11.1265 3.25798 10.439 2.9732C9.75149 2.68842 9.0146 2.54184 8.27042 2.54184C7.52624 2.54184 6.78935 2.68842 6.10182 2.9732C5.41429 3.25798 4.78959 3.6754 4.26338 4.20161C3.20064 5.26434 2.60361 6.70572 2.60361 8.20865C2.60361 9.71158 3.20064 11.153 4.26338 12.2157C5.32611 13.2784 6.76749 13.8755 8.27042 13.8755C9.77335 13.8755 11.2147 13.2784 12.2775 12.2157Z" stroke="#787878" stroke-width="2" stroke-linecap="round" stroke-linejoin="round"/>
</svg>
