<svg width="19" height="19" viewBox="0 0 19 19" fill="none" xmlns="http://www.w3.org/2000/svg">
<path opacity="0.5" d="M17.4167 11.0833V9.34008C17.4167 7.25641 17.4167 6.21379 16.8071 5.53691C16.7512 5.47443 16.692 5.41497 16.6298 5.35879C15.9529 4.74999 14.9103 4.74999 12.8266 4.74999H12.5305C11.6177 4.74999 11.1609 4.74999 10.735 4.62887C10.5013 4.56206 10.276 4.46855 10.0637 4.3502C9.67734 4.13566 9.35434 3.81187 8.70834 3.16666L8.27293 2.73124C8.05601 2.51433 7.94834 2.40666 7.83434 2.31166C7.34404 1.90525 6.74258 1.65612 6.10851 1.59679C5.96126 1.58333 5.80768 1.58333 5.50209 1.58333C4.80305 1.58333 4.45393 1.58333 4.16259 1.63874C3.53705 1.75688 2.96163 2.06081 2.51142 2.51089C2.0612 2.96096 1.75709 3.53628 1.63876 4.16179C1.58334 4.45391 1.58334 4.80383 1.58334 5.50208V11.0833C1.58334 14.0687 1.58334 15.5618 2.51118 16.4888C3.43822 17.4167 4.9313 17.4167 7.91668 17.4167H11.0833C14.0687 17.4167 15.5618 17.4167 16.4888 16.4888C17.4167 15.5618 17.4167 14.0687 17.4167 11.0833Z" fill="#C4C4C4"/>
<path d="M9.69794 7.91666C9.69794 7.75918 9.76049 7.60816 9.87184 7.49681C9.98319 7.38546 10.1342 7.32291 10.2917 7.32291H14.25C14.4075 7.32291 14.5585 7.38546 14.6699 7.49681C14.7812 7.60816 14.8438 7.75918 14.8438 7.91666C14.8438 8.07413 14.7812 8.22515 14.6699 8.3365C14.5585 8.44785 14.4075 8.51041 14.25 8.51041H10.2917C10.1342 8.51041 9.98319 8.44785 9.87184 8.3365C9.76049 8.22515 9.69794 8.07413 9.69794 7.91666Z" fill="#2D2D28"/>
</svg>
